<svg xmlns="http://www.w3.org/2000/svg" viewBox="0 0 899.67 570.98"><defs><style>.cls-1,.cls-10{fill:#fff;}.cls-2{fill:#f8a340;}.cls-3{font-size:53.72px;font-family:Flintstock-RegularOblique, Flintstock;}.cls-10,.cls-11,.cls-12,.cls-3,.cls-9{font-style:oblique;}.cls-4{letter-spacing:-0.02em;}.cls-5{letter-spacing:-0.04em;}.cls-6{letter-spacing:-0.02em;}.cls-7{letter-spacing:0em;}.cls-8{letter-spacing:-0.01em;}.cls-10,.cls-11,.cls-9{font-size:264.27px;}.cls-10,.cls-11,.cls-12,.cls-9{font-family:Flintstock-RoundOblique, Flintstock;}.cls-11{fill:none;stroke:#000;stroke-miterlimit:10;stroke-width:3.52px;}.cls-12{font-size:135.92px;}</style></defs><g id="Слой_2" data-name="Слой 2"><g id="Layer_1" data-name="Layer 1"><path class="cls-1" d="M411.14,0H76.6A76.83,76.83,0,0,0,0,76.6V229.47a76.83,76.83,0,0,0,76.6,76.6H197.29c6.92,18.46,14.58,52.1-6.24,80.17,0,0,96-17.35,137.73-80.17h82.36a76.82,76.82,0,0,0,76.59-76.6V76.6A76.82,76.82,0,0,0,411.14,0Z"/><path class="cls-2" d="M381.75,86.85h424.5c51.38,0,93.42,42,93.42,93.42V377.06c0,51.38-42,93.42-93.42,93.42H652.38c-8.67,23.14-18.28,65.31,7.83,100.5,0,0-120.34-21.76-172.64-100.5H381.75c-51.38,0-93.42-42-93.42-93.42V180.27C288.33,128.89,330.37,86.85,381.75,86.85Z"/><text class="cls-3" transform="translate(412.53 393.71)"> <tspan class="cls-4" x="13.43" y="0">f</tspan><tspan x="37.01" y="0">or eve</tspan><tspan class="cls-5" x="187" y="0">r</tspan><tspan x="213.48" y="0">y ar</tspan><tspan class="cls-6" x="318.93" y="0">t</tspan><tspan class="cls-7" x="346.01" y="0">i</tspan><tspan class="cls-8" x="359.33" y="0">s</tspan><tspan x="386.62" y="0">t </tspan><tspan class="cls-5" x="0" y="52.11">y</tspan><tspan x="30.46" y="52.11">ou bring on! </tspan></text><text class="cls-9" transform="translate(337.49 339.89)">$25</text><text class="cls-10" transform="translate(323.43 328.91)">$25</text><text class="cls-11" transform="translate(317.06 322.65)">$25</text><text class="cls-12" transform="translate(60.19 167.17)">EARN</text></g></g></svg>